{
  "accessors": [
    {
      "bufferView": 2,
      "componentType": 5126,
      "count": 1709,
      "max": [
        53.04290008544922,
        -4.242199897766113,
        -176.16029357910156
      ],
      "min": [
        24.39929962158203,
        -29.47279930114746,
        -176.75599670410156
      ],
      "type": "VEC3"
    },
    {
      "bufferView": 2,
      "byteOffset": 20508,
      "componentType": 5126,
      "count": 1709,
      "max": [
        1.0,
        1.0,
        1.0
      ],
      "min": [
        -1.0,
        -1.0,
        -0.0021000911947339773
      ],
      "type": "VEC3"
    },
    {
      "bufferView": 1,
      "componentType": 5126,
      "count": 1709,
      "max": [
        6.448999881744385,
        5.978400230407715
      ],
      "min": [
        -1.4488999843597412,
        -0.9782999753952026
      ],
      "type": "VEC2"
    },
    {
      "bufferView": 0,
      "componentType": 5125,
      "count": 9216,
      "type": "SCALAR"
    },
    {
      "bufferView": 2,
      "byteOffset": 41016,
      "componentType": 5126,
      "count": 7370,
      "max": [
        53.04290008544922,
        -4.242199897766113,
        -176.3217010498047
      ],
      "min": [
        24.39929962158203,
        -29.47279930114746,
        -204.7863006591797
      ],
      "type": "VEC3"
    },
    {
      "bufferView": 2,
      "byteOffset": 129456,
      "componentType": 5126,
      "count": 7370,
      "max": [
        1.0,
        1.0,
        1.0
      ],
      "min": [
        -1.0,
        -1.0,
        -0.999925971031189
      ],
      "type": "VEC3"
    },
    {
      "bufferView": 1,
      "byteOffset": 13672,
      "componentType": 5126,
      "count": 7370,
      "max": [
        2.549799919128418,
        2.3650999069213867
      ],
      "min": [
        -0.5497000217437744,
        -0.3650999963283539
      ],
      "type": "VEC2"
    },
    {
      "bufferView": 0,
      "byteOffset": 36864,
      "componentType": 5125,
      "count": 29952,
      "type": "SCALAR"
    },
    {
      "bufferView": 2,
      "byteOffset": 217896,
      "componentType": 5126,
      "count": 7370,
      "max": [
        35.929500579833984,
        -10.09689998626709,
        -159.01840209960938
      ],
      "min": [
        4.809899806976318,
        -42.114498138427734,
        -189.03829956054688
      ],
      "type": "VEC3"
    },
    {
      "bufferView": 2,
      "byteOffset": 306336,
      "componentType": 5126,
      "count": 7370,
      "max": [
        0.9995068907737732,
        0.9999372959136963,
        1.0
      ],
      "min": [
        -0.9996554255485535,
        -0.999387264251709,
        -0.9999256134033203
      ],
      "type": "VEC3"
    },
    {
      "bufferView": 1,
      "byteOffset": 72632,
      "componentType": 5126,
      "count": 7370,
      "max": [
        2.549799919128418,
        2.3650999069213867
      ],
      "min": [
        -0.5497000217437744,
        -0.3650999963283539
      ],
      "type": "VEC2"
    },
    {
      "bufferView": 0,
      "byteOffset": 156672,
      "componentType": 5125,
      "count": 29952,
      "type": "SCALAR"
    },
    {
      "bufferView": 2,
      "byteOffset": 394776,
      "componentType": 5126,
      "count": 1709,
      "max": [
        65.56169891357422,
        -7.265699863433838,
        -143.14950561523438
      ],
      "min": [
        18.163400650024414,
        -52.739898681640625,
        -144.80929565429688
      ],
      "type": "VEC3"
    },
    {
      "bufferView": 2,
      "byteOffset": 415284,
      "componentType": 5126,
      "count": 1709,
      "max": [
        1.0,
        1.0,
        1.0
      ],
      "min": [
        -1.0,
        -1.0,
        -0.0021000911947339773
      ],
      "type": "VEC3"
    },
    {
      "bufferView": 1,
      "byteOffset": 131592,
      "componentType": 5126,
      "count": 1709,
      "max": [
        6.448999881744385,
        5.978400230407715
      ],
      "min": [
        -1.4488999843597412,
        -0.9782999753952026
      ],
      "type": "VEC2"
    },
    {
      "bufferView": 0,
      "byteOffset": 276480,
      "componentType": 5125,
      "count": 9216,
      "type": "SCALAR"
    },
    {
      "bufferView": 2,
      "byteOffset": 435792,
      "componentType": 5126,
      "count": 1709,
      "max": [
        35.929500579833984,
        -10.09689998626709,
        -158.84820556640625
      ],
      "min": [
        5.198699951171875,
        -42.114498138427734,
        -159.47650146484375
      ],
      "type": "VEC3"
    },
    {
      "bufferView": 2,
      "byteOffset": 456300,
      "componentType": 5126,
      "count": 1709,
      "max": [
        0.9995068907737732,
        0.9999372959136963,
        1.0
      ],
      "min": [
        -0.9993300437927246,
        -0.9990922808647156,
        -0.002100122394040227
      ],
      "type": "VEC3"
    },
    {
      "bufferView": 1,
      "byteOffset": 145264,
      "componentType": 5126,
      "count": 1709,
      "max": [
        6.448999881744385,
        5.978400230407715
      ],
      "min": [
        -1.4488999843597412,
        -0.9782999753952026
      ],
      "type": "VEC2"
    },
    {
      "bufferView": 0,
      "byteOffset": 313344,
      "componentType": 5125,
      "count": 9216,
      "type": "SCALAR"
    },
    {
      "bufferView": 2,
      "byteOffset": 476808,
      "componentType": 5126,
      "count": 8593,
      "max": [
        66.04840087890625,
        -7.816500186920166,
        -144.00360107421875
      ],
      "min": [
        18.855499267578125,
        -53.84149932861328,
        -196.71620178222656
      ],
      "type": "VEC3"
    },
    {
      "bufferView": 2,
      "byteOffset": 579924,
      "componentType": 5126,
      "count": 8593,
      "max": [
        1.0,
        1.0,
        1.0
      ],
      "min": [
        -1.0,
        -1.0,
        -1.0
      ],
      "type": "VEC3"
    },
    {
      "bufferView": 1,
      "byteOffset": 158936,
      "componentType": 5126,
      "count": 8593,
      "max": [
        2.549799919128418,
        2.3650999069213867
      ],
      "min": [
        -0.5497000217437744,
        -0.3650999963283539
      ],
      "type": "VEC2"
    },
    {
      "bufferView": 0,
      "byteOffset": 350208,
      "componentType": 5125,
      "count": 34086,
      "type": "SCALAR"
    }
  ],
  "asset": {
    "extras": {
      "author": "annaeregina69 (https://sketchfab.com/annaeregina69)",
      "license": "CC-BY-4.0 (http://creativecommons.org/licenses/by/4.0/)",
      "source": "https://sketchfab.com/3d-models/floating-island-exp4-f4f0d9bf50e743e3a2878dcad1bd3fde",
      "title": "Floating Island Exp4"
    },
    "generator": "Sketchfab-12.68.0",
    "version": "2.0"
  },
  "bufferViews": [
    {
      "buffer": 0,
      "byteLength": 486552,
      "name": "floatBufferViews",
      "target": 34963
    },
    {
      "buffer": 0,
      "byteLength": 227680,
      "byteOffset": 486552,
      "byteStride": 8,
      "name": "floatBufferViews",
      "target": 34962
    },
    {
      "buffer": 0,
      "byteLength": 683040,
      "byteOffset": 714232,
      "byteStride": 12,
      "name": "floatBufferViews",
      "target": 34962
    }
  ],
  "buffers": [
    {
      "byteLength": 1397272,
      "uri": "scene.bin"
    }
  ],
  "images": [
    {
      "uri": "textures/Material__10_baseColor.jpeg"
    },
    {
      "uri": "textures/Material__11_baseColor.jpeg"
    }
  ],
  "materials": [
    {
      "doubleSided": true,
      "name": "Material__10",
      "pbrMetallicRoughness": {
        "baseColorTexture": {
          "index": 0
        },
        "metallicFactor": 0.0
      }
    },
    {
      "doubleSided": true,
      "name": "Material__11",
      "pbrMetallicRoughness": {
        "baseColorTexture": {
          "index": 1
        },
        "metallicFactor": 0.0
      }
    },
    {
      "doubleSided": true,
      "name": "Material__14",
      "pbrMetallicRoughness": {
        "baseColorTexture": {
          "index": 1
        },
        "metallicFactor": 0.0
      }
    },
    {
      "doubleSided": true,
      "name": "Material__15",
      "pbrMetallicRoughness": {
        "baseColorTexture": {
          "index": 1
        },
        "metallicFactor": 0.0
      }
    },
    {
      "doubleSided": true,
      "name": "Material__8",
      "pbrMetallicRoughness": {
        "baseColorTexture": {
          "index": 0
        },
        "metallicFactor": 0.0
      }
    },
    {
      "doubleSided": true,
      "name": "Material__9",
      "pbrMetallicRoughness": {
        "baseColorTexture": {
          "index": 0
        },
        "metallicFactor": 0.0
      }
    }
  ],
  "meshes": [
    {
      "name": "Object_0",
      "primitives": [
        {
          "attributes": {
            "NORMAL": 1,
            "POSITION": 0,
            "TEXCOORD_0": 2
          },
          "indices": 3,
          "material": 0,
          "mode": 4
        }
      ]
    },
    {
      "name": "Object_1",
      "primitives": [
        {
          "attributes": {
            "NORMAL": 5,
            "POSITION": 4,
            "TEXCOORD_0": 6
          },
          "indices": 7,
          "material": 2,
          "mode": 4
        }
      ]
    },
    {
      "name": "Object_2",
      "primitives": [
        {
          "attributes": {
            "NORMAL": 9,
            "POSITION": 8,
            "TEXCOORD_0": 10
          },
          "indices": 11,
          "material": 3,
          "mode": 4
        }
      ]
    },
    {
      "name": "Object_3",
      "primitives": [
        {
          "attributes": {
            "NORMAL": 13,
            "POSITION": 12,
            "TEXCOORD_0": 14
          },
          "indices": 15,
          "material": 4,
          "mode": 4
        }
      ]
    },
    {
      "name": "Object_4",
      "primitives": [
        {
          "attributes": {
            "NORMAL": 17,
            "POSITION": 16,
            "TEXCOORD_0": 18
          },
          "indices": 19,
          "material": 5,
          "mode": 4
        }
      ]
    },
    {
      "name": "Object_5",
      "primitives": [
        {
          "attributes": {
            "NORMAL": 21,
            "POSITION": 20,
            "TEXCOORD_0": 22
          },
          "indices": 23,
          "material": 1,
          "mode": 4
        }
      ]
    }
  ],
  "nodes": [
    {
      "children": [
        1
      ],
      "matrix": [
        1.0,
        0.0,
        0.0,
        0.0,
        0.0,
        2.220446049250313e-16,
        -1.0,
        0.0,
        0.0,
        1.0,
        2.220446049250313e-16,
        0.0,
        0.0,
        0.0,
        0.0,
        1.0
      ],
      "name": "Sketchfab_model"
    },
    {
      "children": [
        2,
        3,
        4,
        5,
        6,
        7
      ],
      "name": "6.obj.cleaner.materialmerger.gles"
    },
    {
      "mesh": 0,
      "name": "Object_2"
    },
    {
      "mesh": 1,
      "name": "Object_3"
    },
    {
      "mesh": 2,
      "name": "Object_4"
    },
    {
      "mesh": 3,
      "name": "Object_5"
    },
    {
      "mesh": 4,
      "name": "Object_6"
    },
    {
      "mesh": 5,
      "name": "Object_7"
    }
  ],
  "samplers": [
    {
      "magFilter": 9729,
      "minFilter": 9987,
      "wrapS": 10497,
      "wrapT": 10497
    }
  ],
  "scene": 0,
  "scenes": [
    {
      "name": "Sketchfab_Scene",
      "nodes": [
        0
      ]
    }
  ],
  "textures": [
    {
      "sampler": 0,
      "source": 0
    },
    {
      "sampler": 0,
      "source": 1
    }
  ]
}
