{
  "accessors": [
    {
      "bufferView": 2,
      "componentType": 5126,
      "count": 3660,
      "max": [
        7.261406898498535,
        4.029943466186523,
        7.666089057922363
      ],
      "min": [
        -4.019773960113525,
        -5.723392963409424,
        -7.666088581085205
      ],
      "type": "VEC3"
    },
    {
      "bufferView": 2,
      "byteOffset": 43920,
      "componentType": 5126,
      "count": 3660,
      "max": [
        0.9999869465827942,
        0.9991138577461243,
        0.999895453453064
      ],
      "min": [
        -0.9999479651451111,
        -0.9999583959579468,
        -1.0
      ],
      "type": "VEC3"
    },
    {
      "bufferView": 1,
      "componentType": 5126,
      "count": 3660,
      "max": [
        0.9571866393089294,
        0.980640172958374
      ],
      "min": [
        0.1989009529352188,
        0.011502775363624096
      ],
      "type": "VEC2"
    },
    {
      "bufferView": 0,
      "componentType": 5125,
      "count": 5883,
      "type": "SCALAR"
    },
    {
      "bufferView": 2,
      "byteOffset": 87840,
      "componentType": 5126,
      "count": 42,
      "max": [
        2.075416326522827,
        2.8903608322143555,
        -1.677152156829834
      ],
      "min": [
        -2.514904499053955,
        -2.13979434967041,
        -6.181852340698242
      ],
      "type": "VEC3"
    },
    {
      "bufferView": 2,
      "byteOffset": 88344,
      "componentType": 5126,
      "count": 42,
      "max": [
        0.8686287999153137,
        0.8686296939849854,
        0.3744736313819885
      ],
      "min": [
        -0.8457203507423401,
        -0.6190308332443237,
        -0.9999374747276306
      ],
      "type": "VEC3"
    },
    {
      "bufferView": 1,
      "byteOffset": 29280,
      "componentType": 5126,
      "count": 42,
      "max": [
        0.7905718684196472,
        0.9772133231163025
      ],
      "min": [
        0.37912517786026,
        0.4732096791267395
      ],
      "type": "VEC2"
    },
    {
      "bufferView": 0,
      "byteOffset": 23532,
      "componentType": 5125,
      "count": 72,
      "type": "SCALAR"
    }
  ],
  "asset": {
    "extras": {
      "author": "Pixel (https://sketchfab.com/stefan.lengyel1)",
      "license": "CC-BY-4.0 (http://creativecommons.org/licenses/by/4.0/)",
      "source": "https://sketchfab.com/3d-models/mill-wind-d53ed9dc8f624db9be4c7f3ec22a8e8b",
      "title": "Mill-wind"
    },
    "generator": "Sketchfab-12.64.0",
    "version": "2.0"
  },
  "bufferViews": [
    {
      "buffer": 0,
      "byteLength": 23820,
      "name": "floatBufferViews",
      "target": 34963
    },
    {
      "buffer": 0,
      "byteLength": 29616,
      "byteOffset": 23820,
      "byteStride": 8,
      "name": "floatBufferViews",
      "target": 34962
    },
    {
      "buffer": 0,
      "byteLength": 88848,
      "byteOffset": 53436,
      "byteStride": 12,
      "name": "floatBufferViews",
      "target": 34962
    }
  ],
  "buffers": [
    {
      "byteLength": 142284,
      "uri": "scene.bin"
    }
  ],
  "images": [
    {
      "uri": "textures/Texture-base_baseColor.jpeg"
    }
  ],
  "materials": [
    {
      "doubleSided": true,
      "name": "Texture-base",
      "pbrMetallicRoughness": {
        "baseColorTexture": {
          "index": 0
        },
        "metallicFactor": 0.0
      }
    },
    {
      "doubleSided": true,
      "name": "Texture-base-gloss-jpg",
      "pbrMetallicRoughness": {
        "baseColorTexture": {
          "index": 0
        },
        "metallicFactor": 0.0,
        "roughnessFactor": 0.0
      }
    }
  ],
  "meshes": [
    {
      "name": "Mill-wind_Texture-base_0",
      "primitives": [
        {
          "attributes": {
            "NORMAL": 1,
            "POSITION": 0,
            "TEXCOORD_0": 2
          },
          "indices": 3,
          "material": 0,
          "mode": 4
        }
      ]
    },
    {
      "name": "Mill-wind_Texture-base-gloss-jpg_0",
      "primitives": [
        {
          "attributes": {
            "NORMAL": 5,
            "POSITION": 4,
            "TEXCOORD_0": 6
          },
          "indices": 7,
          "material": 1,
          "mode": 4
        }
      ]
    }
  ],
  "nodes": [
    {
      "children": [
        1
      ],
      "matrix": [
        1.0,
        0.0,
        0.0,
        0.0,
        0.0,
        2.220446049250313e-16,
        -1.0,
        0.0,
        0.0,
        1.0,
        2.220446049250313e-16,
        0.0,
        0.0,
        0.0,
        0.0,
        1.0
      ],
      "name": "Sketchfab_model"
    },
    {
      "children": [
        2
      ],
      "matrix": [
        1.0,
        0.0,
        0.0,
        0.0,
        0.0,
        0.0,
        1.0,
        0.0,
        0.0,
        -1.0,
        0.0,
        0.0,
        0.0,
        0.0,
        0.0,
        1.0
      ],
      "name": "759cc177725a433eabd11c7931535b58.fbx"
    },
    {
      "children": [
        3
      ],
      "name": "RootNode"
    },
    {
      "children": [
        4
      ],
      "matrix": [
        0.9999999999999847,
        1.3234889800848443e-23,
        -1.748455531469491e-07,
        0.0,
        -1.7484555314694647e-07,
        -1.7377590211253846e-07,
        -0.9999999999999697,
        0.0,
        -3.038394373255183e-14,
        0.999999999999985,
        -1.7377590211253846e-07,
        0.0,
        0.0,
        0.0,
        0.0,
        1.0
      ],
      "name": "Mill-wind"
    },
    {
      "children": [
        5,
        6
      ],
      "matrix": [
        1.0,
        0.0,
        -0.0,
        0.0,
        0.0,
        1.0,
        0.0,
        0.0,
        0.0,
        0.0,
        1.0,
        0.0,
        -1.6208189725875854,
        0.8467257618904114,
        -2.384183801495965e-07,
        1.0
      ],
      "name": "Object_4"
    },
    {
      "mesh": 0,
      "name": "Mill-wind_Texture-base_0"
    },
    {
      "mesh": 1,
      "name": "Mill-wind_Texture-base-gloss-jpg_0"
    }
  ],
  "samplers": [
    {
      "magFilter": 9729,
      "minFilter": 9987,
      "wrapS": 10497,
      "wrapT": 10497
    }
  ],
  "scene": 0,
  "scenes": [
    {
      "name": "Sketchfab_Scene",
      "nodes": [
        0
      ]
    }
  ],
  "textures": [
    {
      "sampler": 0,
      "source": 0
    }
  ]
}
