{
  "accessors": [
    {
      "bufferView": 2,
      "componentType": 5126,
      "count": 1929,
      "max": [
        0.4963386058807373,
        1.8871009349822998,
        0.678711473941803
      ],
      "min": [
        -0.4963386058807373,
        -0.7980075478553772,
        -0.4435214102268219
      ],
      "type": "VEC3"
    },
    {
      "bufferView": 2,
      "byteOffset": 23148,
      "componentType": 5126,
      "count": 1929,
      "max": [
        0.9998296499252319,
        1.0,
        0.999691367149353
      ],
      "min": [
        -0.9998296499252319,
        -0.9999493956565857,
        -0.9921363592147827
      ],
      "type": "VEC3"
    },
    {
      "bufferView": 1,
      "componentType": 5126,
      "count": 1929,
      "max": [
        0.7103796005249023,
        0.7610172033309937
      ],
      "min": [
        -0.022464385256171227,
        -0.03253195807337761
      ],
      "type": "VEC2"
    },
    {
      "bufferView": 0,
      "componentType": 5125,
      "count": 6399,
      "type": "SCALAR"
    },
    {
      "bufferView": 2,
      "byteOffset": 46296,
      "componentType": 5126,
      "count": 2047,
      "max": [
        0.45953792333602905,
        0.8090677857398987,
        0.13589569926261902
      ],
      "min": [
        -0.45953792333602905,
        -0.7924913167953491,
        -0.44103407859802246
      ],
      "type": "VEC3"
    },
    {
      "bufferView": 2,
      "byteOffset": 70860,
      "componentType": 5126,
      "count": 2047,
      "max": [
        1.0,
        1.0,
        0.9999991655349731
      ],
      "min": [
        -1.0,
        -1.0,
        -1.0
      ],
      "type": "VEC3"
    },
    {
      "bufferView": 1,
      "byteOffset": 15432,
      "componentType": 5126,
      "count": 2047,
      "max": [
        0.0,
        0.0
      ],
      "min": [
        0.0,
        0.0
      ],
      "type": "VEC2"
    },
    {
      "bufferView": 0,
      "byteOffset": 25596,
      "componentType": 5125,
      "count": 5040,
      "type": "SCALAR"
    },
    {
      "bufferView": 2,
      "byteOffset": 95424,
      "componentType": 5126,
      "count": 203,
      "max": [
        0.26959264278411865,
        1.9281208515167236,
        0.04523962736129761
      ],
      "min": [
        -0.26959264278411865,
        -0.43008577823638916,
        -0.44668227434158325
      ],
      "type": "VEC3"
    },
    {
      "bufferView": 2,
      "byteOffset": 97860,
      "componentType": 5126,
      "count": 203,
      "max": [
        0.6190849542617798,
        1.0,
        0.5442178249359131
      ],
      "min": [
        -0.619084894657135,
        -0.9643121957778931,
        -0.9999954104423523
      ],
      "type": "VEC3"
    },
    {
      "bufferView": 1,
      "byteOffset": 31808,
      "componentType": 5126,
      "count": 203,
      "max": [
        0.3254396319389343,
        0.7500000596046448
      ],
      "min": [
        0.0,
        0.0
      ],
      "type": "VEC2"
    },
    {
      "bufferView": 0,
      "byteOffset": 45756,
      "componentType": 5125,
      "count": 780,
      "type": "SCALAR"
    },
    {
      "bufferView": 2,
      "byteOffset": 100296,
      "componentType": 5126,
      "count": 343,
      "max": [
        0.4296742081642151,
        1.9281208515167236,
        0.7082674503326416
      ],
      "min": [
        -0.4296742081642151,
        -0.8169196844100952,
        -0.403125137090683
      ],
      "type": "VEC3"
    },
    {
      "bufferView": 2,
      "byteOffset": 104412,
      "componentType": 5126,
      "count": 343,
      "max": [
        0.9738546013832092,
        1.0,
        0.9998801946640015
      ],
      "min": [
        -0.9738546013832092,
        -0.9974392056465149,
        -0.8115463256835938
      ],
      "type": "VEC3"
    },
    {
      "bufferView": 1,
      "byteOffset": 33432,
      "componentType": 5126,
      "count": 343,
      "max": [
        0.9093461632728577,
        0.7570897340774536
      ],
      "min": [
        0.0,
        0.0
      ],
      "type": "VEC2"
    },
    {
      "bufferView": 0,
      "byteOffset": 48876,
      "componentType": 5125,
      "count": 1227,
      "type": "SCALAR"
    },
    {
      "bufferView": 2,
      "byteOffset": 108528,
      "componentType": 5126,
      "count": 292,
      "max": [
        0.4817892909049988,
        -0.49962517619132996,
        0.7927509546279907
      ],
      "min": [
        -0.4817892909049988,
        -0.6255576610565186,
        0.25185033679008484
      ],
      "type": "VEC3"
    },
    {
      "bufferView": 2,
      "byteOffset": 112032,
      "componentType": 5126,
      "count": 292,
      "max": [
        0.9835073947906494,
        0.9970089793205261,
        0.927282452583313
      ],
      "min": [
        -0.9835073947906494,
        -0.9975495934486389,
        -0.929330587387085
      ],
      "type": "VEC3"
    },
    {
      "bufferView": 1,
      "byteOffset": 36176,
      "componentType": 5126,
      "count": 292,
      "max": [
        0.0,
        0.0
      ],
      "min": [
        0.0,
        0.0
      ],
      "type": "VEC2"
    },
    {
      "bufferView": 0,
      "byteOffset": 53784,
      "componentType": 5125,
      "count": 1068,
      "type": "SCALAR"
    },
    {
      "bufferView": 2,
      "byteOffset": 115536,
      "componentType": 5126,
      "count": 118,
      "max": [
        0.3304477334022522,
        -0.42491084337234497,
        -0.05291426554322243
      ],
      "min": [
        -0.3304477334022522,
        -0.726007342338562,
        -0.2095060646533966
      ],
      "type": "VEC3"
    },
    {
      "bufferView": 2,
      "byteOffset": 116952,
      "componentType": 5126,
      "count": 118,
      "max": [
        0.9957395792007446,
        0.4312305450439453,
        0.17386510968208313
      ],
      "min": [
        -0.9957395792007446,
        -0.9847694635391235,
        -0.9676843881607056
      ],
      "type": "VEC3"
    },
    {
      "bufferView": 1,
      "byteOffset": 38512,
      "componentType": 5126,
      "count": 118,
      "max": [
        0.0,
        0.0
      ],
      "min": [
        0.0,
        0.0
      ],
      "type": "VEC2"
    },
    {
      "bufferView": 0,
      "byteOffset": 58056,
      "componentType": 5125,
      "count": 456,
      "type": "SCALAR"
    },
    {
      "bufferView": 2,
      "byteOffset": 118368,
      "componentType": 5126,
      "count": 103,
      "max": [
        0.15935984253883362,
        -0.7031897306442261,
        -0.021538082510232925
      ],
      "min": [
        -0.15935984253883362,
        -0.8232114315032959,
        -0.1624266505241394
      ],
      "type": "VEC3"
    },
    {
      "bufferView": 2,
      "byteOffset": 119604,
      "componentType": 5126,
      "count": 103,
      "max": [
        0.8341919183731079,
        0.31376755237579346,
        0.8422292470932007
      ],
      "min": [
        -0.8341919183731079,
        -0.9227378368377686,
        -0.9953570365905762
      ],
      "type": "VEC3"
    },
    {
      "bufferView": 1,
      "byteOffset": 39456,
      "componentType": 5126,
      "count": 103,
      "max": [
        0.0,
        0.0
      ],
      "min": [
        0.0,
        0.0
      ],
      "type": "VEC2"
    },
    {
      "bufferView": 0,
      "byteOffset": 59880,
      "componentType": 5125,
      "count": 312,
      "type": "SCALAR"
    },
    {
      "bufferView": 2,
      "byteOffset": 120840,
      "componentType": 5126,
      "count": 19,
      "max": [
        0.12039394676685333,
        -0.4988568127155304,
        -0.20549675822257996
      ],
      "min": [
        -0.12039394676685333,
        -0.6262795925140381,
        -0.27241238951683044
      ],
      "type": "VEC3"
    },
    {
      "bufferView": 2,
      "byteOffset": 121068,
      "componentType": 5126,
      "count": 19,
      "max": [
        0.4379344582557678,
        0.4606472849845886,
        -0.8160572052001953
      ],
      "min": [
        -0.4379345774650574,
        -0.5453320145606995,
        -0.9239245653152466
      ],
      "type": "VEC3"
    },
    {
      "bufferView": 1,
      "byteOffset": 40280,
      "componentType": 5126,
      "count": 19,
      "max": [
        0.0,
        0.0
      ],
      "min": [
        0.0,
        0.0
      ],
      "type": "VEC2"
    },
    {
      "bufferView": 0,
      "byteOffset": 61128,
      "componentType": 5125,
      "count": 48,
      "type": "SCALAR"
    },
    {
      "bufferView": 2,
      "byteOffset": 121296,
      "componentType": 5126,
      "count": 34,
      "max": [
        0.09085948765277863,
        -0.6220958232879639,
        -0.1717003583908081
      ],
      "min": [
        -0.09085948765277863,
        -0.6747828722000122,
        -0.19820807874202728
      ],
      "type": "VEC3"
    },
    {
      "bufferView": 2,
      "byteOffset": 121704,
      "componentType": 5126,
      "count": 34,
      "max": [
        0.2906242311000824,
        0.5268368124961853,
        0.8506189584732056
      ],
      "min": [
        -0.2906244397163391,
        -0.5344393849372864,
        -0.9835448861122131
      ],
      "type": "VEC3"
    },
    {
      "bufferView": 1,
      "byteOffset": 40432,
      "componentType": 5126,
      "count": 34,
      "max": [
        0.0,
        0.0
      ],
      "min": [
        0.0,
        0.0
      ],
      "type": "VEC2"
    },
    {
      "bufferView": 0,
      "byteOffset": 61320,
      "componentType": 5125,
      "count": 84,
      "type": "SCALAR"
    },
    {
      "bufferView": 2,
      "byteOffset": 122112,
      "componentType": 5126,
      "count": 174,
      "max": [
        0.25219327211380005,
        -0.7079334259033203,
        0.012316793203353882
      ],
      "min": [
        -0.25219327211380005,
        -0.7563635110855103,
        -0.15406382083892822
      ],
      "type": "VEC3"
    },
    {
      "bufferView": 2,
      "byteOffset": 124200,
      "componentType": 5126,
      "count": 174,
      "max": [
        0.9916105270385742,
        -0.030552003532648087,
        0.7764115333557129
      ],
      "min": [
        -0.991610586643219,
        -0.9538010954856873,
        -0.9902527332305908
      ],
      "type": "VEC3"
    },
    {
      "bufferView": 1,
      "byteOffset": 40704,
      "componentType": 5126,
      "count": 174,
      "max": [
        0.0,
        0.0
      ],
      "min": [
        0.0,
        0.0
      ],
      "type": "VEC2"
    },
    {
      "bufferView": 0,
      "byteOffset": 61656,
      "componentType": 5125,
      "count": 450,
      "type": "SCALAR"
    },
    {
      "bufferView": 2,
      "byteOffset": 126288,
      "componentType": 5126,
      "count": 8,
      "max": [
        0.21984773874282837,
        -0.7204828858375549,
        0.0016634868225082755
      ],
      "min": [
        -0.21984773874282837,
        -0.7232630848884583,
        -0.005331248510628939
      ],
      "type": "VEC3"
    },
    {
      "bufferView": 2,
      "byteOffset": 126384,
      "componentType": 5126,
      "count": 8,
      "max": [
        0.3390430808067322,
        -0.8935804963111877,
        -0.19659847021102905
      ],
      "min": [
        -0.3390428423881531,
        -0.9232640862464905,
        -0.3185236155986786
      ],
      "type": "VEC3"
    },
    {
      "bufferView": 1,
      "byteOffset": 42096,
      "componentType": 5126,
      "count": 8,
      "max": [
        0.0,
        0.0
      ],
      "min": [
        0.0,
        0.0
      ],
      "type": "VEC2"
    },
    {
      "bufferView": 0,
      "byteOffset": 63456,
      "componentType": 5125,
      "count": 12,
      "type": "SCALAR"
    }
  ],
  "asset": {
    "extras": {
      "author": "NarutoUzumaki05 (https://sketchfab.com/NarutoUzumaki05)",
      "license": "CC-BY-4.0 (http://creativecommons.org/licenses/by/4.0/)",
      "source": "https://sketchfab.com/3d-models/appa-bison-4-e9e04611de5e4fa78bf445b19ea01ea3",
      "title": "Appa Bison 4"
    },
    "generator": "Sketchfab-12.66.0",
    "version": "2.0"
  },
  "bufferViews": [
    {
      "buffer": 0,
      "byteLength": 63504,
      "name": "floatBufferViews",
      "target": 34963
    },
    {
      "buffer": 0,
      "byteLength": 42160,
      "byteOffset": 63504,
      "byteStride": 8,
      "name": "floatBufferViews",
      "target": 34962
    },
    {
      "buffer": 0,
      "byteLength": 126480,
      "byteOffset": 105664,
      "byteStride": 12,
      "name": "floatBufferViews",
      "target": 34962
    }
  ],
  "buffers": [
    {
      "byteLength": 232144,
      "uri": "scene.bin"
    }
  ],
  "extensionsUsed": [
    "KHR_materials_clearcoat"
  ],
  "materials": [
    {
      "doubleSided": true,
      "name": "skin_anither",
      "pbrMetallicRoughness": {
        "baseColorFactor": [
          0.7494345424331753,
          0.6321313905442507,
          0.305082993800738,
          1.0
        ],
        "metallicFactor": 0.0,
        "roughnessFactor": 0.8458522107698166
      }
    },
    {
      "doubleSided": true,
      "name": "skin",
      "pbrMetallicRoughness": {
        "baseColorFactor": [
          0.09503719215562158,
          0.037421629241174356,
          0.013246263127663107,
          1.0
        ],
        "metallicFactor": 0.0,
        "roughnessFactor": 0.9857266263766782
      }
    },
    {
      "doubleSided": true,
      "name": "belly",
      "pbrMetallicRoughness": {
        "baseColorFactor": [
          0.122139,
          0.0908417,
          0.0886556,
          1.0
        ],
        "metallicFactor": 0.0,
        "roughnessFactor": 0.9782346354092428
      }
    },
    {
      "doubleSided": true,
      "name": "brown_fur",
      "pbrMetallicRoughness": {
        "baseColorFactor": [
          0.10556041286686094,
          0.06110486129404033,
          0.02832563416950641,
          1.0
        ],
        "metallicFactor": 0.0,
        "roughnessFactor": 0.9725526372688257
      }
    },
    {
      "doubleSided": true,
      "name": "horns",
      "pbrMetallicRoughness": {
        "baseColorFactor": [
          0.0352072,
          0.0250763,
          0.00670439,
          1.0
        ],
        "metallicFactor": 0.0,
        "roughnessFactor": 0.9942077616381404
      }
    },
    {
      "doubleSided": true,
      "name": "mouth_brown",
      "pbrMetallicRoughness": {
        "baseColorFactor": [
          0.144129,
          0.13286800000000001,
          0.111932,
          1.0
        ],
        "metallicFactor": 0.0,
        "roughnessFactor": 0.9700924768956375
      }
    },
    {
      "doubleSided": true,
      "name": "nose",
      "pbrMetallicRoughness": {
        "baseColorFactor": [
          0.049549,
          0.049549,
          0.049549,
          1.0
        ],
        "metallicFactor": 0.0,
        "roughnessFactor": 0.9889205067782862
      }
    },
    {
      "doubleSided": true,
      "name": "WHITE_HAIRS",
      "pbrMetallicRoughness": {
        "baseColorFactor": [
          0.6053283849968216,
          0.5092927901784249,
          0.25157311402981386,
          1.0
        ],
        "metallicFactor": 0.0,
        "roughnessFactor": 0.9270201077775528
      }
    },
    {
      "doubleSided": true,
      "name": "mouth",
      "pbrMetallicRoughness": {
        "baseColorFactor": [
          0.8,
          0.0233864,
          0.227439,
          1.0
        ],
        "metallicFactor": 0.0,
        "roughnessFactor": 0.9545570503390434
      }
    },
    {
      "doubleSided": true,
      "extensions": {
        "KHR_materials_clearcoat": {
          "clearcoatFactor": 1.0,
          "clearcoatRoughnessFactor": 0.04
        }
      },
      "name": "eyes_black",
      "pbrMetallicRoughness": {
        "baseColorFactor": [
          0.0,
          0.0,
          0.0,
          1.0
        ],
        "metallicFactor": 0.0
      }
    },
    {
      "doubleSided": true,
      "name": "eues_white",
      "pbrMetallicRoughness": {
        "baseColorFactor": [
          0.8,
          0.8,
          0.8,
          1.0
        ],
        "metallicFactor": 0.0,
        "roughnessFactor": 0.8211145618000169
      }
    }
  ],
  "meshes": [
    {
      "name": "FULL APPA _skin anither_0",
      "primitives": [
        {
          "attributes": {
            "NORMAL": 1,
            "POSITION": 0,
            "TEXCOORD_0": 2
          },
          "indices": 3,
          "material": 0,
          "mode": 4
        }
      ]
    },
    {
      "name": "FULL APPA _skin_0",
      "primitives": [
        {
          "attributes": {
            "NORMAL": 5,
            "POSITION": 4,
            "TEXCOORD_0": 6
          },
          "indices": 7,
          "material": 1,
          "mode": 4
        }
      ]
    },
    {
      "name": "FULL APPA _belly _0",
      "primitives": [
        {
          "attributes": {
            "NORMAL": 9,
            "POSITION": 8,
            "TEXCOORD_0": 10
          },
          "indices": 11,
          "material": 2,
          "mode": 4
        }
      ]
    },
    {
      "name": "FULL APPA _brown fur_0",
      "primitives": [
        {
          "attributes": {
            "NORMAL": 13,
            "POSITION": 12,
            "TEXCOORD_0": 14
          },
          "indices": 15,
          "material": 3,
          "mode": 4
        }
      ]
    },
    {
      "name": "FULL APPA _horns_0",
      "primitives": [
        {
          "attributes": {
            "NORMAL": 17,
            "POSITION": 16,
            "TEXCOORD_0": 18
          },
          "indices": 19,
          "material": 4,
          "mode": 4
        }
      ]
    },
    {
      "name": "FULL APPA _mouth brown_0",
      "primitives": [
        {
          "attributes": {
            "NORMAL": 21,
            "POSITION": 20,
            "TEXCOORD_0": 22
          },
          "indices": 23,
          "material": 5,
          "mode": 4
        }
      ]
    },
    {
      "name": "FULL APPA _nose_0",
      "primitives": [
        {
          "attributes": {
            "NORMAL": 25,
            "POSITION": 24,
            "TEXCOORD_0": 26
          },
          "indices": 27,
          "material": 6,
          "mode": 4
        }
      ]
    },
    {
      "name": "FULL APPA _WHITE HAIRS _0",
      "primitives": [
        {
          "attributes": {
            "NORMAL": 29,
            "POSITION": 28,
            "TEXCOORD_0": 30
          },
          "indices": 31,
          "material": 7,
          "mode": 4
        }
      ]
    },
    {
      "name": "FULL APPA _mouth_0",
      "primitives": [
        {
          "attributes": {
            "NORMAL": 33,
            "POSITION": 32,
            "TEXCOORD_0": 34
          },
          "indices": 35,
          "material": 8,
          "mode": 4
        }
      ]
    },
    {
      "name": "FULL APPA _eyes black_0",
      "primitives": [
        {
          "attributes": {
            "NORMAL": 37,
            "POSITION": 36,
            "TEXCOORD_0": 38
          },
          "indices": 39,
          "material": 9,
          "mode": 4
        }
      ]
    },
    {
      "name": "FULL APPA _eues white_0",
      "primitives": [
        {
          "attributes": {
            "NORMAL": 41,
            "POSITION": 40,
            "TEXCOORD_0": 42
          },
          "indices": 43,
          "material": 10,
          "mode": 4
        }
      ]
    }
  ],
  "nodes": [
    {
      "children": [
        1
      ],
      "matrix": [
        1.0,
        0.0,
        0.0,
        0.0,
        0.0,
        2.220446049250313e-16,
        -1.0,
        0.0,
        0.0,
        1.0,
        2.220446049250313e-16,
        0.0,
        0.0,
        0.0,
        0.0,
        1.0
      ],
      "name": "Sketchfab_model"
    },
    {
      "children": [
        2
      ],
      "matrix": [
        1.0,
        0.0,
        0.0,
        0.0,
        0.0,
        0.0,
        1.0,
        0.0,
        0.0,
        -1.0,
        0.0,
        0.0,
        0.0,
        0.0,
        0.0,
        1.0
      ],
      "name": "90e7c868c8054bfabc394989df11da5d.fbx"
    },
    {
      "children": [
        3
      ],
      "name": "RootNode"
    },
    {
      "children": [
        4,
        5,
        6,
        7,
        8,
        9,
        10,
        11,
        12,
        13,
        14
      ],
      "matrix": [
        100.0,
        0.0,
        0.0,
        0.0,
        0.0,
        -1.629206793918314e-05,
        -99.99999999999868,
        0.0,
        0.0,
        99.99999999999868,
        -1.629206793918314e-05,
        0.0,
        1.1920928955078125e-05,
        47.779197692871094,
        20.072799682617188,
        1.0
      ],
      "name": "FULL APPA "
    },
    {
      "mesh": 0,
      "name": "FULL APPA _skin anither_0"
    },
    {
      "mesh": 1,
      "name": "FULL APPA _skin_0"
    },
    {
      "mesh": 2,
      "name": "FULL APPA _belly _0"
    },
    {
      "mesh": 3,
      "name": "FULL APPA _brown fur_0"
    },
    {
      "mesh": 4,
      "name": "FULL APPA _horns_0"
    },
    {
      "mesh": 5,
      "name": "FULL APPA _mouth brown_0"
    },
    {
      "mesh": 6,
      "name": "FULL APPA _nose_0"
    },
    {
      "mesh": 7,
      "name": "FULL APPA _WHITE HAIRS _0"
    },
    {
      "mesh": 8,
      "name": "FULL APPA _mouth_0"
    },
    {
      "mesh": 9,
      "name": "FULL APPA _eyes black_0"
    },
    {
      "mesh": 10,
      "name": "FULL APPA _eues white_0"
    }
  ],
  "scene": 0,
  "scenes": [
    {
      "name": "Sketchfab_Scene",
      "nodes": [
        0
      ]
    }
  ]
}
