{
  "accessors": [
    {
      "bufferView": 3,
      "componentType": 5126,
      "count": 13326,
      "max": [
        4.968039512634277,
        4.962820529937744,
        17.58481216430664
      ],
      "min": [
        -4.968016147613525,
        -4.9627556800842285,
        -0.126692995429039
      ],
      "type": "VEC3"
    },
    {
      "bufferView": 3,
      "byteOffset": 159912,
      "componentType": 5126,
      "count": 13326,
      "max": [
        1.0,
        1.0,
        1.0
      ],
      "min": [
        -1.0,
        -1.0,
        -1.0
      ],
      "type": "VEC3"
    },
    {
      "bufferView": 4,
      "componentType": 5126,
      "count": 13326,
      "max": [
        1.0,
        1.0,
        1.0,
        1.0
      ],
      "min": [
        -1.0,
        -1.0,
        -0.8643701672554016,
        -1.0
      ],
      "type": "VEC4"
    },
    {
      "bufferView": 2,
      "componentType": 5126,
      "count": 13326,
      "max": [
        0.9779174327850342,
        0.999755859375
      ],
      "min": [
        0.000244140625,
        0.000244140625
      ],
      "type": "VEC2"
    },
    {
      "bufferView": 2,
      "byteOffset": 106608,
      "componentType": 5126,
      "count": 13326,
      "max": [
        0.9779174327850342,
        0.999755859375
      ],
      "min": [
        0.000244140625,
        0.000244140625
      ],
      "type": "VEC2"
    },
    {
      "bufferView": 2,
      "byteOffset": 213216,
      "componentType": 5126,
      "count": 13326,
      "max": [
        0.9779174327850342,
        0.999755859375
      ],
      "min": [
        0.000244140625,
        0.000244140625
      ],
      "type": "VEC2"
    },
    {
      "bufferView": 1,
      "componentType": 5125,
      "count": 68940,
      "type": "SCALAR"
    },
    {
      "bufferView": 5,
      "componentType": 5126,
      "count": 3,
      "max": [
        1.0,
        0.0,
        0.0,
        0.0,
        0.0,
        1.0,
        1.0000001192092896,
        0.0,
        1.0000001192092896,
        6.123234262925839e-17,
        1.0,
        0.0,
        3.0195209980010986,
        1.848922972554694e-16,
        2.7917957829727136e-23,
        1.0
      ],
      "min": [
        6.123234262925839e-17,
        -1.0,
        -1.5099578831723193e-07,
        0.0,
        0.0,
        -1.509957741063772e-07,
        -1.0000001192092896,
        0.0,
        -1.000000238418579,
        -6.123234262925839e-17,
        -9.245825306981144e-24,
        0.0,
        -3.0195202827453613,
        -1.848922707856898e-16,
        -1.1321387396177029e-32,
        1.0
      ],
      "type": "MAT4"
    },
    {
      "bufferView": 0,
      "componentType": 5123,
      "count": 13326,
      "type": "VEC4"
    },
    {
      "bufferView": 4,
      "byteOffset": 213216,
      "componentType": 5126,
      "count": 13326,
      "max": [
        1.0,
        0.01942312717437744,
        0.0,
        0.0
      ],
      "min": [
        0.9805768728256226,
        0.0,
        0.0,
        0.0
      ],
      "type": "VEC4"
    }
  ],
  "asset": {
    "extras": {
      "author": "cddtreborn (https://sketchfab.com/volbergd)",
      "license": "CC-BY-4.0 (http://creativecommons.org/licenses/by/4.0/)",
      "source": "https://sketchfab.com/3d-models/hot-air-balloon-a0fe31afa2274bd78a13bbbf06f30aaa",
      "title": "Hot Air Balloon"
    },
    "generator": "Sketchfab-12.98.0",
    "version": "2.0"
  },
  "bufferViews": [
    {
      "buffer": 0,
      "byteLength": 106608,
      "byteStride": 8,
      "name": "shortBufferViews",
      "target": 34962
    },
    {
      "buffer": 0,
      "byteLength": 275760,
      "byteOffset": 106608,
      "name": "floatBufferViews",
      "target": 34963
    },
    {
      "buffer": 0,
      "byteLength": 319824,
      "byteOffset": 382368,
      "byteStride": 8,
      "name": "floatBufferViews",
      "target": 34962
    },
    {
      "buffer": 0,
      "byteLength": 319824,
      "byteOffset": 702192,
      "byteStride": 12,
      "name": "floatBufferViews",
      "target": 34962
    },
    {
      "buffer": 0,
      "byteLength": 426432,
      "byteOffset": 1022016,
      "byteStride": 16,
      "name": "floatBufferViews",
      "target": 34962
    },
    {
      "buffer": 0,
      "byteLength": 192,
      "byteOffset": 1448448,
      "name": "floatBufferViews"
    }
  ],
  "buffers": [
    {
      "byteLength": 1448640,
      "uri": "scene.bin"
    }
  ],
  "images": [
    {
      "uri": "textures/Balloon_baseColor.png"
    },
    {
      "uri": "textures/Balloon_metallicRoughness.png"
    },
    {
      "uri": "textures/Balloon_normal.png"
    }
  ],
  "materials": [
    {
      "doubleSided": true,
      "name": "Balloon",
      "normalTexture": {
        "index": 2,
        "texCoord": 1
      },
      "pbrMetallicRoughness": {
        "baseColorTexture": {
          "index": 0
        },
        "metallicRoughnessTexture": {
          "index": 1
        }
      }
    }
  ],
  "meshes": [
    {
      "name": "Balloon_Balloon_0",
      "primitives": [
        {
          "attributes": {
            "JOINTS_0": 8,
            "NORMAL": 1,
            "POSITION": 0,
            "TANGENT": 2,
            "TEXCOORD_0": 3,
            "TEXCOORD_1": 4,
            "TEXCOORD_2": 5,
            "WEIGHTS_0": 9
          },
          "indices": 6,
          "material": 0,
          "mode": 4
        }
      ]
    }
  ],
  "nodes": [
    {
      "children": [
        1
      ],
      "matrix": [
        1.0,
        6.340815480754295e-32,
        -1.6081226229577292e-16,
        0.0,
        1.6081226229577292e-16,
        -5.053215392444312e-16,
        1.0,
        0.0,
        -1.7853747624282703e-32,
        -1.0,
        -5.053215392444312e-16,
        0.0,
        0.0,
        0.0,
        0.0,
        1.0
      ],
      "name": "Sketchfab_model"
    },
    {
      "children": [
        2
      ],
      "matrix": [
        0.009999999776482582,
        0.0,
        0.0,
        0.0,
        0.0,
        -0.009999999776482582,
        0.0,
        0.0,
        0.0,
        0.0,
        -0.009999999776482582,
        0.0,
        0.0,
        0.0,
        0.0,
        1.0
      ],
      "name": "SK_Stage_Balloon.fbx"
    },
    {
      "children": [
        3
      ],
      "name": "RootNode"
    },
    {
      "children": [
        4
      ],
      "matrix": [
        10000.0,
        0.0,
        0.0,
        0.0,
        0.0,
        10000.0,
        0.0,
        0.0,
        0.0,
        0.0,
        10000.0,
        0.0,
        0.0,
        0.0,
        0.0,
        1.0
      ],
      "name": "Armature"
    },
    {
      "children": [
        5,
        7,
        6
      ],
      "name": "Object_4"
    },
    {
      "children": [
        8
      ],
      "name": "_rootJoint"
    },
    {
      "matrix": [
        10000.0,
        0.0,
        0.0,
        0.0,
        0.0,
        10000.00021553028,
        2.5693197569509604e-11,
        0.0,
        0.0,
        -2.5693197569509604e-11,
        10000.00021553028,
        0.0,
        0.0,
        0.0,
        -0.0006599533371627331,
        1.0
      ],
      "name": "Object_6"
    },
    {
      "mesh": 0,
      "name": "Object_7",
      "skin": 0
    },
    {
      "children": [
        9
      ],
      "name": "Balloon_00",
      "rotation": [
        0.5,
        -0.4999999701976776,
        0.5,
        0.5
      ],
      "scale": [
        0.9999999403953552,
        1.0,
        0.9999999403953552
      ],
      "translation": [
        0.0,
        0.0,
        3.0195200443267822
      ]
    },
    {
      "name": "Basket_01",
      "rotation": [
        -3.2388856425021777e-15,
        1.0,
        7.549789415861596e-08,
        4.371138828673793e-08
      ],
      "scale": [
        0.9999998211860657,
        1.0,
        1.0
      ],
      "translation": [
        2.384185791015625e-07,
        0.0,
        -7.888609052210118e-31
      ]
    }
  ],
  "samplers": [
    {
      "magFilter": 9729,
      "minFilter": 9987,
      "wrapS": 10497,
      "wrapT": 10497
    }
  ],
  "scene": 0,
  "scenes": [
    {
      "name": "Sketchfab_Scene",
      "nodes": [
        0
      ]
    }
  ],
  "skins": [
    {
      "inverseBindMatrices": 7,
      "joints": [
        5,
        8,
        9
      ],
      "skeleton": 5
    }
  ],
  "textures": [
    {
      "sampler": 0,
      "source": 0
    },
    {
      "sampler": 0,
      "source": 1
    },
    {
      "sampler": 0,
      "source": 2
    }
  ]
}
