{
  "accessors": [
    {
      "bufferView": 2,
      "componentType": 5126,
      "count": 2496,
      "max": [
        9.63634967803955,
        2.0435776710510254,
        13.06414794921875
      ],
      "min": [
        -9.810846328735352,
        0.004426836967468262,
        -12.50568962097168
      ],
      "type": "VEC3"
    },
    {
      "bufferView": 2,
      "byteOffset": 29952,
      "componentType": 5126,
      "count": 2496,
      "max": [
        0.9999208450317383,
        1.0,
        0.9999149441719055
      ],
      "min": [
        -0.9995917677879333,
        -1.0,
        -0.999646782875061
      ],
      "type": "VEC3"
    },
    {
      "bufferView": 1,
      "componentType": 5126,
      "count": 2496,
      "max": [
        0.9866027235984802,
        0.9813615679740906
      ],
      "min": [
        0.013669833540916443,
        0.02120685577392578
      ],
      "type": "VEC2"
    },
    {
      "bufferView": 1,
      "byteOffset": 19968,
      "componentType": 5126,
      "count": 2496,
      "max": [
        0.9866027235984802,
        0.9813615679740906
      ],
      "min": [
        0.013669833540916443,
        0.02120685577392578
      ],
      "type": "VEC2"
    },
    {
      "bufferView": 1,
      "byteOffset": 39936,
      "componentType": 5126,
      "count": 2496,
      "max": [
        0.9866027235984802,
        0.9813615679740906
      ],
      "min": [
        0.013669833540916443,
        0.02120685577392578
      ],
      "type": "VEC2"
    },
    {
      "bufferView": 0,
      "componentType": 5125,
      "count": 2748,
      "type": "SCALAR"
    }
  ],
  "asset": {
    "extras": {
      "author": "irzafy (https://sketchfab.com/irzafy09)",
      "license": "CC-BY-4.0 (http://creativecommons.org/licenses/by/4.0/)",
      "source": "https://sketchfab.com/3d-models/low-poly-island-4130717317004312998c4825fb683093",
      "title": "Low poly Island"
    },
    "generator": "Sketchfab-12.67.0",
    "version": "2.0"
  },
  "bufferViews": [
    {
      "buffer": 0,
      "byteLength": 10992,
      "name": "floatBufferViews",
      "target": 34963
    },
    {
      "buffer": 0,
      "byteLength": 59904,
      "byteOffset": 10992,
      "byteStride": 8,
      "name": "floatBufferViews",
      "target": 34962
    },
    {
      "buffer": 0,
      "byteLength": 59904,
      "byteOffset": 70896,
      "byteStride": 12,
      "name": "floatBufferViews",
      "target": 34962
    }
  ],
  "buffers": [
    {
      "byteLength": 130800,
      "uri": "scene.bin"
    }
  ],
  "extensionsRequired": [
    "KHR_materials_pbrSpecularGlossiness"
  ],
  "extensionsUsed": [
    "KHR_materials_pbrSpecularGlossiness"
  ],
  "images": [
    {
      "uri": "textures/material_0_diffuse.png"
    },
    {
      "uri": "textures/material_0_specularGlossiness.png"
    }
  ],
  "materials": [
    {
      "doubleSided": true,
      "extensions": {
        "KHR_materials_pbrSpecularGlossiness": {
          "diffuseFactor": [
            1.0,
            1.0,
            1.0,
            1.0
          ],
          "diffuseTexture": {
            "index": 0
          },
          "glossinessFactor": 1.0,
          "specularFactor": [
            1.0,
            1.0,
            1.0
          ],
          "specularGlossinessTexture": {
            "index": 1
          }
        }
      },
      "name": "material_0"
    }
  ],
  "meshes": [
    {
      "name": "Object_0",
      "primitives": [
        {
          "attributes": {
            "NORMAL": 1,
            "POSITION": 0,
            "TEXCOORD_0": 2,
            "TEXCOORD_1": 3,
            "TEXCOORD_2": 4
          },
          "indices": 5,
          "material": 0,
          "mode": 4
        }
      ]
    }
  ],
  "nodes": [
    {
      "children": [
        1
      ],
      "matrix": [
        1.0,
        0.0,
        0.0,
        0.0,
        0.0,
        2.220446049250313e-16,
        -1.0,
        0.0,
        0.0,
        1.0,
        2.220446049250313e-16,
        0.0,
        0.0,
        0.0,
        0.0,
        1.0
      ],
      "name": "Sketchfab_model"
    },
    {
      "children": [
        2
      ],
      "name": "root"
    },
    {
      "children": [
        3
      ],
      "matrix": [
        1.0,
        0.0,
        0.0,
        0.0,
        0.0,
        2.220446049250313e-16,
        1.0,
        0.0,
        0.0,
        -1.0,
        2.220446049250313e-16,
        0.0,
        0.0,
        0.0,
        0.0,
        1.0
      ],
      "name": "GLTF_SceneRootNode"
    },
    {
      "children": [
        4
      ],
      "matrix": [
        0.009999999776482582,
        0.0,
        0.0,
        0.0,
        0.0,
        0.009999999776482582,
        0.0,
        0.0,
        0.0,
        0.0,
        0.009999999776482582,
        0.0,
        0.0,
        0.0,
        0.0,
        1.0
      ],
      "name": "RootNode.0_0"
    },
    {
      "children": [
        5
      ],
      "name": "floating_island_1.1_1"
    },
    {
      "mesh": 0,
      "name": "Object_5"
    }
  ],
  "samplers": [
    {
      "magFilter": 9729,
      "minFilter": 9987,
      "wrapS": 10497,
      "wrapT": 10497
    }
  ],
  "scene": 0,
  "scenes": [
    {
      "name": "Sketchfab_Scene",
      "nodes": [
        0
      ]
    }
  ],
  "textures": [
    {
      "sampler": 0,
      "source": 0
    },
    {
      "sampler": 0,
      "source": 1
    }
  ]
}
