{
  "accessors": [
    {
      "bufferView": 2,
      "componentType": 5126,
      "count": 65532,
      "max": [
        0.8483702540397644,
        3.4024860858917236,
        0.7901294827461243
      ],
      "min": [
        -0.8483672142028809,
        -0.5231982469558716,
        -1.034956932067871
      ],
      "type": "VEC3"
    },
    {
      "bufferView": 2,
      "byteOffset": 786384,
      "componentType": 5126,
      "count": 65532,
      "max": [
        0.9999935030937195,
        0.9999975562095642,
        0.9999995827674866
      ],
      "min": [
        -0.999992311000824,
        -0.9999949336051941,
        -0.9999998807907104
      ],
      "type": "VEC3"
    },
    {
      "bufferView": 3,
      "componentType": 5126,
      "count": 65532,
      "max": [
        0.9999998807907104,
        0.9999827742576599,
        0.9999951720237732,
        1.0
      ],
      "min": [
        -1.0,
        -0.9999876618385315,
        -0.9999666213989258,
        -1.0
      ],
      "type": "VEC4"
    },
    {
      "bufferView": 1,
      "componentType": 5126,
      "count": 65532,
      "max": [
        0.9810100197792053,
        0.9977899789810181
      ],
      "min": [
        0.0019499999471008778,
        0.0019499999471008778
      ],
      "type": "VEC2"
    },
    {
      "bufferView": 0,
      "componentType": 5125,
      "count": 339612,
      "type": "SCALAR"
    },
    {
      "bufferView": 2,
      "byteOffset": 1572768,
      "componentType": 5126,
      "count": 20331,
      "max": [
        0.8181874752044678,
        3.341115951538086,
        0.7901294827461243
      ],
      "min": [
        -0.8293107748031616,
        -0.5035239458084106,
        -1.0290883779525757
      ],
      "type": "VEC3"
    },
    {
      "bufferView": 2,
      "byteOffset": 1816740,
      "componentType": 5126,
      "count": 20331,
      "max": [
        0.9999827742576599,
        0.9999975562095642,
        0.9999709725379944
      ],
      "min": [
        -0.999992311000824,
        -0.9998059868812561,
        -0.999972403049469
      ],
      "type": "VEC3"
    },
    {
      "bufferView": 3,
      "byteOffset": 1048512,
      "componentType": 5126,
      "count": 20331,
      "max": [
        0.9998012781143188,
        0.9999441504478455,
        0.9999697208404541,
        1.0
      ],
      "min": [
        -1.0,
        -0.9997576475143433,
        -0.9999805688858032,
        -1.0
      ],
      "type": "VEC4"
    },
    {
      "bufferView": 1,
      "byteOffset": 524256,
      "componentType": 5126,
      "count": 20331,
      "max": [
        0.9980400204658508,
        0.9977099895477295
      ],
      "min": [
        0.0019499999471008778,
        0.01769999973475933
      ],
      "type": "VEC2"
    },
    {
      "bufferView": 0,
      "byteOffset": 1358448,
      "componentType": 5125,
      "count": 81786,
      "type": "SCALAR"
    }
  ],
  "asset": {
    "extras": {
      "author": "baton (https://sketchfab.com/baton2)",
      "license": "CC-BY-4.0 (http://creativecommons.org/licenses/by/4.0/)",
      "source": "https://sketchfab.com/3d-models/appa-from-last-airbender-24613560a452408f83582cbe08a490e8",
      "title": "Appa from Last Airbender"
    },
    "generator": "Sketchfab-15.17.0",
    "version": "2.0"
  },
  "bufferViews": [
    {
      "buffer": 0,
      "byteLength": 1685592,
      "name": "floatBufferViews",
      "target": 34963
    },
    {
      "buffer": 0,
      "byteLength": 686904,
      "byteOffset": 1685592,
      "byteStride": 8,
      "name": "floatBufferViews",
      "target": 34962
    },
    {
      "buffer": 0,
      "byteLength": 2060712,
      "byteOffset": 2372496,
      "byteStride": 12,
      "name": "floatBufferViews",
      "target": 34962
    },
    {
      "buffer": 0,
      "byteLength": 1373808,
      "byteOffset": 4433208,
      "byteStride": 16,
      "name": "floatBufferViews",
      "target": 34962
    }
  ],
  "buffers": [
    {
      "byteLength": 5807016,
      "uri": "scene.bin"
    }
  ],
  "images": [
    {
      "uri": "textures/defaultMat_baseColor.jpeg"
    },
    {
      "uri": "textures/defaultMat_metallicRoughness.png"
    },
    {
      "uri": "textures/defaultMat_normal.png"
    }
  ],
  "materials": [
    {
      "doubleSided": true,
      "name": "defaultMat",
      "normalTexture": {
        "index": 2
      },
      "occlusionTexture": {
        "index": 1
      },
      "pbrMetallicRoughness": {
        "baseColorTexture": {
          "index": 0
        },
        "metallicFactor": 0.0,
        "metallicRoughnessTexture": {
          "index": 1
        },
        "roughnessFactor": 0.6
      }
    }
  ],
  "meshes": [
    {
      "name": "Object_0",
      "primitives": [
        {
          "attributes": {
            "NORMAL": 1,
            "POSITION": 0,
            "TANGENT": 2,
            "TEXCOORD_0": 3
          },
          "indices": 4,
          "material": 0,
          "mode": 4
        }
      ]
    },
    {
      "name": "Object_1",
      "primitives": [
        {
          "attributes": {
            "NORMAL": 6,
            "POSITION": 5,
            "TANGENT": 7,
            "TEXCOORD_0": 8
          },
          "indices": 9,
          "material": 0,
          "mode": 4
        }
      ]
    }
  ],
  "nodes": [
    {
      "children": [
        1
      ],
      "matrix": [
        1.9072078466415405,
        0.0,
        0.0,
        0.0,
        0.0,
        4.2348521281744057e-16,
        -1.9072078466415405,
        0.0,
        0.0,
        1.9072078466415405,
        4.2348521281744057e-16,
        0.0,
        0.0,
        0.0,
        0.0,
        1.0
      ],
      "name": "Sketchfab_model"
    },
    {
      "children": [
        2,
        3
      ],
      "name": "AppaLowPolyExport.obj.cleaner.materialmerger.gles"
    },
    {
      "mesh": 0,
      "name": "Object_2"
    },
    {
      "mesh": 1,
      "name": "Object_3"
    }
  ],
  "samplers": [
    {
      "magFilter": 9729,
      "minFilter": 9987,
      "wrapS": 10497,
      "wrapT": 10497
    }
  ],
  "scene": 0,
  "scenes": [
    {
      "name": "Sketchfab_Scene",
      "nodes": [
        0
      ]
    }
  ],
  "textures": [
    {
      "sampler": 0,
      "source": 0
    },
    {
      "sampler": 0,
      "source": 1
    },
    {
      "sampler": 0,
      "source": 2
    }
  ]
}
