{
  "accessors": [
    {
      "bufferView": 2,
      "componentType": 5126,
      "count": 122,
      "max": [
        273.4429016113281,
        334.7091979980469,
        14.93560791015625
      ],
      "min": [
        -406.7825012207031,
        -345.5162048339844,
        11.802094459533691
      ],
      "type": "VEC3"
    },
    {
      "bufferView": 2,
      "byteOffset": 1464,
      "componentType": 5126,
      "count": 122,
      "max": [
        1.0,
        1.0,
        1.0
      ],
      "min": [
        -1.0,
        -1.0,
        -1.0
      ],
      "type": "VEC3"
    },
    {
      "bufferView": 1,
      "componentType": 5126,
      "count": 122,
      "max": [
        0.9900000095367432,
        0.9900000095367432
      ],
      "min": [
        0.009999999776482582,
        0.012045999988913536
      ],
      "type": "VEC2"
    },
    {
      "bufferView": 0,
      "componentType": 5125,
      "count": 336,
      "type": "SCALAR"
    },
    {
      "bufferView": 2,
      "byteOffset": 2928,
      "componentType": 5126,
      "count": 9404,
      "max": [
        167.2781982421875,
        289.9549865722656,
        639.3828735351563
      ],
      "min": [
        -382.435791015625,
        -227.9604034423828,
        14.92559814453125
      ],
      "type": "VEC3"
    },
    {
      "bufferView": 2,
      "byteOffset": 115776,
      "componentType": 5126,
      "count": 9404,
      "max": [
        1.0,
        1.0,
        1.0
      ],
      "min": [
        -1.0,
        -1.0,
        -1.0
      ],
      "type": "VEC3"
    },
    {
      "bufferView": 3,
      "componentType": 5126,
      "count": 9404,
      "max": [
        0.9999967217445374,
        1.0,
        1.0,
        1.0
      ],
      "min": [
        -1.0,
        -1.0,
        -1.0,
        -1.0
      ],
      "type": "VEC4"
    },
    {
      "bufferView": 1,
      "byteOffset": 976,
      "componentType": 5126,
      "count": 9404,
      "max": [
        0.9900000095367432,
        0.9900000095367432
      ],
      "min": [
        0.009999999776482582,
        0.012012000195682049
      ],
      "type": "VEC2"
    },
    {
      "bufferView": 0,
      "byteOffset": 1344,
      "componentType": 5125,
      "count": 30366,
      "type": "SCALAR"
    },
    {
      "bufferView": 2,
      "byteOffset": 228624,
      "componentType": 5126,
      "count": 9056,
      "max": [
        179.43429565429688,
        139.5850067138672,
        510.1109924316406
      ],
      "min": [
        -311.9502868652344,
        -133.456298828125,
        293.3587951660156
      ],
      "type": "VEC3"
    },
    {
      "bufferView": 2,
      "byteOffset": 337296,
      "componentType": 5126,
      "count": 9056,
      "max": [
        1.0,
        1.0,
        0.9993972182273865
      ],
      "min": [
        -1.0,
        -1.0,
        -0.9999681115150452
      ],
      "type": "VEC3"
    },
    {
      "bufferView": 3,
      "byteOffset": 150464,
      "componentType": 5126,
      "count": 9056,
      "max": [
        0.9999995827674866,
        1.0,
        1.0,
        1.0
      ],
      "min": [
        -0.999585747718811,
        -1.0,
        -1.0,
        -1.0
      ],
      "type": "VEC4"
    },
    {
      "bufferView": 1,
      "byteOffset": 76208,
      "componentType": 5126,
      "count": 9056,
      "max": [
        0.9900000095367432,
        0.9900000095367432
      ],
      "min": [
        0.009999999776482582,
        0.009999999776482582
      ],
      "type": "VEC2"
    },
    {
      "bufferView": 0,
      "byteOffset": 122808,
      "componentType": 5125,
      "count": 27090,
      "type": "SCALAR"
    },
    {
      "bufferView": 2,
      "byteOffset": 445968,
      "componentType": 5126,
      "count": 9882,
      "max": [
        105.243408203125,
        108.94619750976563,
        835.4448852539063
      ],
      "min": [
        -224.7469940185547,
        -109.88069915771484,
        399.9429016113281
      ],
      "type": "VEC3"
    },
    {
      "bufferView": 2,
      "byteOffset": 564552,
      "componentType": 5126,
      "count": 9882,
      "max": [
        1.0,
        1.0,
        1.0
      ],
      "min": [
        -1.0,
        -1.0,
        -1.0
      ],
      "type": "VEC3"
    },
    {
      "bufferView": 3,
      "byteOffset": 295360,
      "componentType": 5126,
      "count": 9882,
      "max": [
        1.0,
        1.0,
        1.0,
        1.0
      ],
      "min": [
        -1.0,
        -1.0,
        -1.0,
        -1.0
      ],
      "type": "VEC4"
    },
    {
      "bufferView": 1,
      "byteOffset": 148656,
      "componentType": 5126,
      "count": 9882,
      "max": [
        0.9860479831695557,
        0.9900000095367432
      ],
      "min": [
        0.009999999776482582,
        0.009999999776482582
      ],
      "type": "VEC2"
    },
    {
      "bufferView": 0,
      "byteOffset": 231168,
      "componentType": 5125,
      "count": 27018,
      "type": "SCALAR"
    },
    {
      "bufferView": 2,
      "byteOffset": 683136,
      "componentType": 5126,
      "count": 2473,
      "max": [
        37.58909606933594,
        -75.28800201416016,
        688.853515625
      ],
      "min": [
        -24.2510986328125,
        -119.1626968383789,
        655.2891235351563
      ],
      "type": "VEC3"
    },
    {
      "bufferView": 2,
      "byteOffset": 712812,
      "componentType": 5126,
      "count": 2473,
      "max": [
        0.999455988407135,
        0.9979524612426758,
        0.9968526363372803
      ],
      "min": [
        -0.9988310933113098,
        -0.9989917874336243,
        -0.9909417629241943
      ],
      "type": "VEC3"
    },
    {
      "bufferView": 3,
      "byteOffset": 453472,
      "componentType": 5126,
      "count": 2473,
      "max": [
        0.9988124966621399,
        0.9990600347518921,
        0.9951094388961792,
        1.0
      ],
      "min": [
        -0.9996480345726013,
        -0.9952764511108398,
        -0.9867618083953857,
        1.0
      ],
      "type": "VEC4"
    },
    {
      "bufferView": 1,
      "byteOffset": 227712,
      "componentType": 5126,
      "count": 2473,
      "max": [
        0.883230984210968,
        0.9900000095367432
      ],
      "min": [
        0.009999999776482582,
        0.009999999776482582
      ],
      "type": "VEC2"
    },
    {
      "bufferView": 0,
      "byteOffset": 339240,
      "componentType": 5125,
      "count": 6972,
      "type": "SCALAR"
    },
    {
      "bufferView": 2,
      "byteOffset": 742488,
      "componentType": 5126,
      "count": 422,
      "max": [
        45.61419677734375,
        39.545101165771484,
        734.6140747070313
      ],
      "min": [
        -200.2458953857422,
        -57.87350082397461,
        580.69091796875
      ],
      "type": "VEC3"
    },
    {
      "bufferView": 2,
      "byteOffset": 747552,
      "componentType": 5126,
      "count": 422,
      "max": [
        1.0,
        1.0,
        1.0
      ],
      "min": [
        -1.0,
        -1.0,
        -0.9938479065895081
      ],
      "type": "VEC3"
    },
    {
      "bufferView": 1,
      "byteOffset": 247496,
      "componentType": 5126,
      "count": 422,
      "max": [
        0.9900000095367432,
        0.9900000095367432
      ],
      "min": [
        0.009999999776482582,
        0.012032999657094479
      ],
      "type": "VEC2"
    },
    {
      "bufferView": 0,
      "byteOffset": 367128,
      "componentType": 5125,
      "count": 1584,
      "type": "SCALAR"
    }
  ],
  "asset": {
    "extras": {
      "author": "Akhikyan (https://sketchfab.com/akhikyan)",
      "license": "CC-BY-4.0 (http://creativecommons.org/licenses/by/4.0/)",
      "source": "https://sketchfab.com/3d-models/steampunk-lighthouse-21ac51ebc4874fd08cc74ff75aed328d",
      "title": "Steampunk Lighthouse"
    },
    "generator": "Sketchfab-12.66.0",
    "version": "2.0"
  },
  "bufferViews": [
    {
      "buffer": 0,
      "byteLength": 373464,
      "name": "floatBufferViews",
      "target": 34963
    },
    {
      "buffer": 0,
      "byteLength": 250872,
      "byteOffset": 373464,
      "byteStride": 8,
      "name": "floatBufferViews",
      "target": 34962
    },
    {
      "buffer": 0,
      "byteLength": 752616,
      "byteOffset": 624336,
      "byteStride": 12,
      "name": "floatBufferViews",
      "target": 34962
    },
    {
      "buffer": 0,
      "byteLength": 493040,
      "byteOffset": 1376952,
      "byteStride": 16,
      "name": "floatBufferViews",
      "target": 34962
    }
  ],
  "buffers": [
    {
      "byteLength": 1869992,
      "uri": "scene.bin"
    }
  ],
  "images": [
    {
      "uri": "textures/Material__29_baseColor.png"
    },
    {
      "uri": "textures/Material__30_baseColor.png"
    },
    {
      "uri": "textures/Material__30_metallicRoughness.png"
    },
    {
      "uri": "textures/Material__30_normal.png"
    },
    {
      "uri": "textures/Material__31_baseColor.png"
    },
    {
      "uri": "textures/Material__31_metallicRoughness.png"
    },
    {
      "uri": "textures/Material__31_normal.png"
    },
    {
      "uri": "textures/Material__32_baseColor.png"
    },
    {
      "uri": "textures/Material__32_metallicRoughness.png"
    },
    {
      "uri": "textures/Material__32_normal.png"
    },
    {
      "uri": "textures/Material__33_baseColor.png"
    },
    {
      "uri": "textures/Material__33_metallicRoughness.png"
    },
    {
      "uri": "textures/Material__33_normal.png"
    },
    {
      "uri": "textures/Material__34_baseColor.png"
    },
    {
      "uri": "textures/Material__34_emissive.png"
    }
  ],
  "materials": [
    {
      "alphaMode": "BLEND",
      "doubleSided": true,
      "name": "Material__29",
      "pbrMetallicRoughness": {
        "baseColorTexture": {
          "index": 0
        },
        "metallicFactor": 0.0,
        "roughnessFactor": 0.6
      }
    },
    {
      "doubleSided": true,
      "name": "Material__30",
      "normalTexture": {
        "index": 3
      },
      "occlusionTexture": {
        "index": 2
      },
      "pbrMetallicRoughness": {
        "baseColorTexture": {
          "index": 1
        },
        "metallicRoughnessTexture": {
          "index": 2
        },
        "roughnessFactor": 0.3421997458487618
      }
    },
    {
      "doubleSided": true,
      "name": "Material__31",
      "normalTexture": {
        "index": 6
      },
      "occlusionTexture": {
        "index": 5
      },
      "pbrMetallicRoughness": {
        "baseColorTexture": {
          "index": 4
        },
        "metallicRoughnessTexture": {
          "index": 5
        },
        "roughnessFactor": 0.6
      }
    },
    {
      "doubleSided": true,
      "name": "Material__32",
      "normalTexture": {
        "index": 9
      },
      "occlusionTexture": {
        "index": 8
      },
      "pbrMetallicRoughness": {
        "baseColorTexture": {
          "index": 7
        },
        "metallicFactor": 0.9988584474885845,
        "metallicRoughnessTexture": {
          "index": 8
        },
        "roughnessFactor": 0.6
      }
    },
    {
      "doubleSided": true,
      "name": "Material__33",
      "normalTexture": {
        "index": 12
      },
      "occlusionTexture": {
        "index": 11
      },
      "pbrMetallicRoughness": {
        "baseColorTexture": {
          "index": 10
        },
        "metallicRoughnessTexture": {
          "index": 11
        },
        "roughnessFactor": 0.6
      }
    },
    {
      "alphaMode": "BLEND",
      "doubleSided": true,
      "emissiveFactor": [
        1.0,
        1.0,
        1.0
      ],
      "emissiveTexture": {
        "index": 14
      },
      "name": "Material__34",
      "pbrMetallicRoughness": {
        "baseColorFactor": [
          1.0,
          1.0,
          1.0,
          0.3117988800321033
        ],
        "baseColorTexture": {
          "index": 13
        },
        "metallicFactor": 0.0,
        "roughnessFactor": 0.6
      }
    }
  ],
  "meshes": [
    {
      "name": "Object_0",
      "primitives": [
        {
          "attributes": {
            "NORMAL": 1,
            "POSITION": 0,
            "TEXCOORD_0": 2
          },
          "indices": 3,
          "material": 0,
          "mode": 4
        }
      ]
    },
    {
      "name": "Object_1",
      "primitives": [
        {
          "attributes": {
            "NORMAL": 5,
            "POSITION": 4,
            "TANGENT": 6,
            "TEXCOORD_0": 7
          },
          "indices": 8,
          "material": 1,
          "mode": 4
        }
      ]
    },
    {
      "name": "Object_2",
      "primitives": [
        {
          "attributes": {
            "NORMAL": 10,
            "POSITION": 9,
            "TANGENT": 11,
            "TEXCOORD_0": 12
          },
          "indices": 13,
          "material": 2,
          "mode": 4
        }
      ]
    },
    {
      "name": "Object_3",
      "primitives": [
        {
          "attributes": {
            "NORMAL": 15,
            "POSITION": 14,
            "TANGENT": 16,
            "TEXCOORD_0": 17
          },
          "indices": 18,
          "material": 3,
          "mode": 4
        }
      ]
    },
    {
      "name": "Object_4",
      "primitives": [
        {
          "attributes": {
            "NORMAL": 20,
            "POSITION": 19,
            "TANGENT": 21,
            "TEXCOORD_0": 22
          },
          "indices": 23,
          "material": 4,
          "mode": 4
        }
      ]
    },
    {
      "name": "Object_5",
      "primitives": [
        {
          "attributes": {
            "NORMAL": 25,
            "POSITION": 24,
            "TEXCOORD_0": 26
          },
          "indices": 27,
          "material": 5,
          "mode": 4
        }
      ]
    }
  ],
  "nodes": [
    {
      "children": [
        1
      ],
      "matrix": [
        1.0,
        0.0,
        0.0,
        0.0,
        0.0,
        2.220446049250313e-16,
        -1.0,
        0.0,
        0.0,
        1.0,
        2.220446049250313e-16,
        0.0,
        0.0,
        0.0,
        0.0,
        1.0
      ],
      "name": "Sketchfab_model"
    },
    {
      "children": [
        2,
        3,
        4,
        5,
        6,
        7
      ],
      "name": "Lighthouse_02.3b.obj.cleaner.materialmerger.gles"
    },
    {
      "mesh": 0,
      "name": "Object_2"
    },
    {
      "mesh": 1,
      "name": "Object_3"
    },
    {
      "mesh": 2,
      "name": "Object_4"
    },
    {
      "mesh": 3,
      "name": "Object_5"
    },
    {
      "mesh": 4,
      "name": "Object_6"
    },
    {
      "mesh": 5,
      "name": "Object_7"
    }
  ],
  "samplers": [
    {
      "magFilter": 9729,
      "minFilter": 9987,
      "wrapS": 10497,
      "wrapT": 10497
    }
  ],
  "scene": 0,
  "scenes": [
    {
      "name": "Sketchfab_Scene",
      "nodes": [
        0
      ]
    }
  ],
  "textures": [
    {
      "sampler": 0,
      "source": 0
    },
    {
      "sampler": 0,
      "source": 1
    },
    {
      "sampler": 0,
      "source": 2
    },
    {
      "sampler": 0,
      "source": 3
    },
    {
      "sampler": 0,
      "source": 4
    },
    {
      "sampler": 0,
      "source": 5
    },
    {
      "sampler": 0,
      "source": 6
    },
    {
      "sampler": 0,
      "source": 7
    },
    {
      "sampler": 0,
      "source": 8
    },
    {
      "sampler": 0,
      "source": 9
    },
    {
      "sampler": 0,
      "source": 10
    },
    {
      "sampler": 0,
      "source": 11
    },
    {
      "sampler": 0,
      "source": 12
    },
    {
      "sampler": 0,
      "source": 13
    },
    {
      "sampler": 0,
      "source": 14
    }
  ]
}
